<?xml version="1.0" encoding="utf-8"?>
<!-- Generator: Adobe Illustrator 14.0.0, SVG Export Plug-In . SVG Version: 6.00 Build 43363)  -->
<!DOCTYPE svg PUBLIC "-//W3C//DTD SVG 1.1//EN" "http://www.w3.org/Graphics/SVG/1.1/DTD/svg11.dtd">
<svg version="1.1" id="Layer_1" xmlns="http://www.w3.org/2000/svg" xmlns:xlink="http://www.w3.org/1999/xlink" x="0px" y="0px"
	 width="612px" height="792px" viewBox="0 0 612 792" enable-background="new 0 0 612 792" xml:space="preserve">
<g>
	<g>
		<path fill="#008066" d="M280.177,403.316c3.836-4.148,7.988-8.455,12.354-11.824c3.255-2.513,6.256-4.22,9.068-5.146
			c-2.226-2.58-4.641-5.188-7.246-7.378c-4.292-3.608-8.264-5.362-12.141-5.362c-10.586,0-18.901,11.344-26.942,22.314l-0.442,0.604
			c-6.567,8.955-16.855,18.476-20.664,21.888h27.288C262.951,417.442,273.52,410.518,280.177,403.316z"/>
	</g>
	<path fill="#50A696" d="M346.334,405.873c-4.701-3.484-9.145-6.775-17.074-6.66c-7.61,0.111-11.031,3.062-14.992,6.48
		c-1.223,1.055-2.485,2.145-3.93,3.2c-4.392,3.213-12.292,7.271-16.562,9.378l74.299,0.139c-4.604-2.334-13.657-7.019-18.1-9.941
		C348.721,407.641,347.508,406.742,346.334,405.873z"/>
	<g>
		<path fill="#008D76" d="M357.885,403.441c-2.791-2.939-5.234-5.74-7.393-8.211c-6.516-7.465-10.818-12.396-16.629-12.396
			c-4.092,0-9.227,3.769-14.275,8.187c3.166,2.046,6.419,4.425,9.521,6.702c0.043-0.001,0.086-0.003,0.129-0.004
			c8.435-0.119,13.291,3.476,17.981,6.952c1.156,0.857,2.354,1.743,3.574,2.548c5.665,3.73,19.022,10.403,20.605,11.191h6.764
			C373.773,416.25,365.574,411.541,357.885,403.441z"/>
	</g>
	<g>
		<path fill="#00927C" d="M290.23,418.332c0.132-0.062,13.254-6.273,19.229-10.645c1.396-1.021,2.636-2.093,3.836-3.128
			c3.58-3.09,6.986-6.022,13.486-6.697c-7.304-5.341-15.209-10.861-20.306-10.861c-9.188,0-19.607,11.271-25.205,17.326
			c-5.433,5.876-13.393,11.553-17.125,14.083h26.103L290.23,418.332z"/>
	</g>
</g>
</svg>
