<?xml version="1.0" encoding="utf-8"?>
<!-- Generator: Adobe Illustrator 14.0.0, SVG Export Plug-In . SVG Version: 6.00 Build 43363)  -->
<!DOCTYPE svg PUBLIC "-//W3C//DTD SVG 1.1//EN" "http://www.w3.org/Graphics/SVG/1.1/DTD/svg11.dtd">
<svg version="1.1" id="Layer_1" xmlns="http://www.w3.org/2000/svg" xmlns:xlink="http://www.w3.org/1999/xlink" x="0px" y="0px"
	 width="143.999px" height="44.807px" viewBox="234.033 373.85 143.999 44.807"
	 enable-background="new 234.033 373.85 143.999 44.807" xml:space="preserve">
<g>
	<g>
		<path fill="#808184" d="M280.046,403.562c3.836-4.149,7.987-8.454,12.354-11.825c3.254-2.514,6.256-4.221,9.068-5.147
			c-2.226-2.58-4.641-5.188-7.246-7.378c-4.292-3.608-8.264-5.362-12.141-5.362c-10.586,0-18.901,11.345-26.942,22.314l-0.442,0.603
			c-6.567,8.956-16.855,18.479-20.664,21.89h27.288C262.82,417.689,273.389,410.764,280.046,403.562z"/>
	</g>
	<path fill="#E6E7E8" d="M346.203,406.117c-4.701-3.484-9.146-6.774-17.074-6.659c-7.611,0.109-11.031,3.062-14.992,6.479
		c-1.223,1.056-2.484,2.146-3.93,3.2c-4.392,3.213-12.292,7.271-16.562,9.378l74.298,0.14c-4.604-2.334-13.657-7.02-18.1-9.941
		C348.59,407.886,347.377,406.987,346.203,406.117z"/>
	<g>
		<path fill="#9C9EA1" d="M357.754,403.688c-2.791-2.938-5.234-5.738-7.393-8.211c-6.516-7.465-10.819-12.396-16.629-12.396
			c-4.094,0-9.228,3.77-14.275,8.187c3.166,2.047,6.419,4.426,9.521,6.702c0.043-0.001,0.084-0.003,0.129-0.004
			c8.436-0.119,13.291,3.477,17.981,6.952c1.156,0.857,2.354,1.743,3.574,2.548c5.665,3.73,19.021,10.403,20.604,11.19h6.765
			C373.643,416.496,365.443,411.787,357.754,403.688z"/>
	</g>
	<g>
		<path fill="#BBBDBF" d="M290.099,418.578c0.132-0.062,13.253-6.273,19.229-10.646c1.396-1.021,2.636-2.092,3.836-3.127
			c3.58-3.09,6.986-6.021,13.486-6.696c-7.305-5.342-15.209-10.86-20.309-10.86c-9.187,0-19.607,11.271-25.205,17.325
			c-5.433,5.876-13.393,11.553-17.125,14.082h26.103L290.099,418.578z"/>
	</g>
</g>
</svg>
